<svg xmlns="http://www.w3.org/2000/svg" width="131.04" height="22.256">
    <path fill="#0046dd"
          d="M25.594 0H47.85v22.256H25.594zM0 0h22.256v22.256H0zM51.188 0h22.256v22.256H51.188zM77.943 1.441A1.429 1.429 0 1 1 76.514.016a1.43 1.43 0 0 1 1.429 1.425zm-.25 0a1.179 1.179 0 1 0-1.179 1.182 1.181 1.181 0 0 0 1.179-1.182zm-.568-.242a.4.4 0 0 1-.286.413l.319.519h-.362l-.286-.489h-.257v.489h-.313V.76h.684c.317 0 .5.168.5.439zm-.561.2c.155 0 .236-.074.236-.2s-.081-.193-.236-.193h-.31v.391z"/>
    <path d="M55.684 3.971h13.292v3.285h-4.657v10.959h-3.97V7.256h-4.665zm-45.356 0h-5.6v14.244h5.6a7.122 7.122 0 1 0 0-14.244m-.668 3.4a3.722 3.722 0 1 1-.038 7.441h-.956V7.371h.994m35.172 10.842L38.837 3.969h-4.241l-6 14.244h3.886l.972-2.309h6.518l.972 2.309zm-6.241-5.3H34.84l1.876-4.455z"
          fill="#fff"/>
    <g>
        <path d="M82.714 6.313h3.26v1.152h-3.26v2.567h-1.615V3.58h5.048v1.194h-3.433zM88.139 5.984h.038a1.615 1.615 0 0 1 1.523-.856 1.2 1.2 0 0 1 .3.035v1.331a5.124 5.124 0 0 0-.538-.036c-.723 0-1.263.288-1.263 1.224v2.353h-1.5V5.243h1.441z"/>
        <path d="M95.198 8.598a2.629 2.629 0 1 1-2.53-3.469 2.382 2.382 0 0 1 2.578 2.8h-3.627c.013.757.423 1.247 1.053 1.247a.92.92 0 0 0 .986-.679zm-3.565-1.535h2.075a1.038 1.038 0 0 0-2.075 0zM97.285 3.489v1.126h-1.5V3.491zm0 1.752v4.792h-1.5V5.241zM102.959 9.66c0 1.61-1.133 2.149-2.573 2.149a2.327 2.327 0 0 1-2.542-1.591l1.5-.131a.956.956 0 0 0 1.045.688c.634 0 1.07-.309 1.07-1.145v-.461h-.038a1.719 1.719 0 0 1-1.485.616 2.337 2.337 0 0 1 .036-4.656 1.663 1.663 0 0 1 1.512.7h.038v-.586h1.441zm-1.428-2.208a1.1 1.1 0 1 0-2.179 0c0 .785.428 1.272 1.092 1.272s1.088-.489 1.088-1.272zM105.166 5.884a1.885 1.885 0 0 1 1.57-.756 1.606 1.606 0 0 1 1.727 1.761v3.144h-1.5v-2.8c0-.706-.307-.963-.855-.963-.5 0-.977.412-.977 1.2v2.555h-1.5V3.481h1.5v2.4zM112.028 8.964v1.069a3.743 3.743 0 0 1-.959.113c-1.075 0-1.542-.271-1.542-1.271V6.169h-.783v-.928h.783V3.913h1.5v1.328h1.023v.928h-1.023v2.4c0 .377.157.449.513.449a2.045 2.045 0 0 0 .488-.054zM85.507 18.202a3.228 3.228 0 0 1-2.015.685c-1.381 0-2.667-.6-2.667-1.908a1.882 1.882 0 0 1 1.343-1.773l.225-.1a1.994 1.994 0 0 1-.71-1.4c0-.882.871-1.544 2.089-1.544s2.089.661 2.089 1.544c0 .669-.512 1.041-1.146 1.373l-.392.205 1.03 1.018a3.1 3.1 0 0 0 .136-.914h1.276a3.812 3.812 0 0 1-.453 1.862l1.528 1.51h-1.772zm-2.015-.389a1.77 1.77 0 0 0 1.185-.433l-1.508-1.494-.09.047c-.5.262-.766.576-.766 1 0 .526.435.881 1.179.881zm-.411-4.057c0 .231.149.431.507.8l.189-.087c.435-.2.685-.382.685-.71a.694.694 0 0 0-1.38 0zM91.703 17.313l-.5 1.446h-1.7l2.465-6.454h2.148l2.465 6.454h-1.725l-.509-1.446zm1.331-3.726h-.038l-.9 2.6h1.858zM98.387 14.61a1.889 1.889 0 0 1 1.6-.757 1.616 1.616 0 0 1 1.761 1.761v3.144h-1.5v-2.794c0-.705-.307-.963-.855-.963-.513 0-.977.371-.977 1.163v2.6h-1.5v-4.8h1.441v.643zM107.267 17.727v1.031a2.629 2.629 0 0 1-.654.069c-.627 0-.99-.158-1.16-.55h-.038a1.946 1.946 0 0 1-1.51.594c-.937 0-1.727-.523-1.727-1.413 0-1.026.708-1.41 1.979-1.571.961-.124 1.208-.253 1.208-.532 0-.328-.25-.525-.721-.525a.879.879 0 0 0-.883.664l-1.4-.165a2.12 2.12 0 0 1 2.3-1.476c1.507 0 2.2.626 2.2 1.6v2.03c0 .235.078.28.216.28a.642.642 0 0 0 .19-.036zm-1.9-1.274a2.561 2.561 0 0 1-.9.234c-.436.073-.749.284-.749.678a.554.554 0 0 0 .618.565 1 1 0 0 0 1.036-1.024zM109.134 12.214v6.544h-1.5v-6.544zM113.141 18.758c-.591 1.579-1.254 1.776-2.17 1.776a6.47 6.47 0 0 1-.9-.055V19.32a3.517 3.517 0 0 0 .636.054.69.69 0 0 0 .778-.509l.056-.138-2.008-4.763h1.636l1.127 3.1h.038l1-3.1h1.611zM118.288 17.689v1.069a3.764 3.764 0 0 1-.959.113c-1.076 0-1.542-.271-1.542-1.27v-2.707h-.784v-.928h.784v-1.327h1.5v1.327h1.023v.928h-1.019v2.4c0 .377.156.45.513.45a2.074 2.074 0 0 0 .484-.055zM120.348 12.214v1.123h-1.5v-1.123zm0 1.752v4.792h-1.5v-4.792zM124.452 16.945l1.528.149a2.509 2.509 0 1 1-.063-1.654l-1.484.265a.993.993 0 0 0-.98-.8c-.635 0-1.048.461-1.048 1.464s.413 1.459 1.048 1.459a1 1 0 0 0 .999-.883zM129.503 15.423a.839.839 0 0 0-.9-.662c-.43 0-.743.176-.743.5 0 .309.329.4.834.484l.523.078c.918.145 1.819.4 1.819 1.5 0 1.077-1.036 1.549-2.4 1.549-1.33 0-2.288-.546-2.458-1.511l1.413-.161a.945.945 0 0 0 1.059.763c.517 0 .85-.217.85-.575 0-.293-.344-.429-.889-.514l-.574-.086c-.817-.122-1.683-.4-1.683-1.447 0-.964 1.054-1.488 2.234-1.488 1.206 0 2.127.525 2.3 1.419z"/>
    </g>
</svg>
